<svg width="1200" height="630" viewBox="0 0 1200 630" fill="none" xmlns="http://www.w3.org/2000/svg">
<g clip-path="url(#clip0_3_2)">
<rect width="1200" height="630" fill="url(#paint0_linear_3_2)"/>
<ellipse cx="1128" cy="1024" rx="645" ry="651" fill="url(#paint1_radial_3_2)"/>
<rect x="27" y="27" width="1146" height="576" rx="30" stroke="#111F20" stroke-width="4" stroke-dasharray="8 8"/>
<path d="M105.114 372.75H95.1591C94.9773 371.462 94.6061 370.318 94.0455 369.318C93.4849 368.303 92.7652 367.439 91.8864 366.727C91.0076 366.015 89.9924 365.47 88.8409 365.091C87.7045 364.712 86.4697 364.523 85.1364 364.523C82.7273 364.523 80.6288 365.121 78.8409 366.318C77.053 367.5 75.6667 369.227 74.6818 371.5C73.697 373.758 73.2045 376.5 73.2045 379.727C73.2045 383.045 73.697 385.833 74.6818 388.091C75.6818 390.348 77.0758 392.053 78.8636 393.205C80.6515 394.356 82.7197 394.932 85.0682 394.932C86.3864 394.932 87.6061 394.758 88.7273 394.409C89.8636 394.061 90.8712 393.553 91.75 392.886C92.6288 392.205 93.3561 391.379 93.9318 390.409C94.5227 389.439 94.9318 388.333 95.1591 387.091L105.114 387.136C104.856 389.273 104.212 391.333 103.182 393.318C102.167 395.288 100.795 397.053 99.0682 398.614C97.3561 400.159 95.3106 401.386 92.9318 402.295C90.5682 403.189 87.8939 403.636 84.9091 403.636C80.7576 403.636 77.0455 402.697 73.7727 400.818C70.5152 398.939 67.9394 396.22 66.0455 392.659C64.1667 389.098 63.2273 384.788 63.2273 379.727C63.2273 374.652 64.1818 370.333 66.0909 366.773C68 363.212 70.5909 360.5 73.8636 358.636C77.1364 356.758 80.8182 355.818 84.9091 355.818C87.6061 355.818 90.1061 356.197 92.4091 356.955C94.7273 357.712 96.7803 358.818 98.5682 360.273C100.356 361.712 101.811 363.477 102.932 365.568C104.068 367.659 104.795 370.053 105.114 372.75ZM127.761 403.682C124.231 403.682 121.178 402.932 118.602 401.432C116.042 399.917 114.064 397.811 112.67 395.114C111.277 392.402 110.58 389.258 110.58 385.682C110.58 382.076 111.277 378.924 112.67 376.227C114.064 373.515 116.042 371.409 118.602 369.909C121.178 368.394 124.231 367.636 127.761 367.636C131.292 367.636 134.337 368.394 136.898 369.909C139.473 371.409 141.458 373.515 142.852 376.227C144.246 378.924 144.943 382.076 144.943 385.682C144.943 389.258 144.246 392.402 142.852 395.114C141.458 397.811 139.473 399.917 136.898 401.432C134.337 402.932 131.292 403.682 127.761 403.682ZM127.807 396.182C129.413 396.182 130.754 395.727 131.83 394.818C132.905 393.894 133.716 392.636 134.261 391.045C134.822 389.455 135.102 387.644 135.102 385.614C135.102 383.583 134.822 381.773 134.261 380.182C133.716 378.591 132.905 377.333 131.83 376.409C130.754 375.485 129.413 375.023 127.807 375.023C126.186 375.023 124.822 375.485 123.716 376.409C122.625 377.333 121.799 378.591 121.239 380.182C120.693 381.773 120.42 383.583 120.42 385.614C120.42 387.644 120.693 389.455 121.239 391.045C121.799 392.636 122.625 393.894 123.716 394.818C124.822 395.727 126.186 396.182 127.807 396.182ZM160.92 382.818V403H151.239V368.091H160.466V374.25H160.875C161.648 372.22 162.943 370.614 164.761 369.432C166.58 368.235 168.784 367.636 171.375 367.636C173.799 367.636 175.913 368.167 177.716 369.227C179.519 370.288 180.92 371.803 181.92 373.773C182.92 375.727 183.42 378.061 183.42 380.773V403H173.739V382.5C173.754 380.364 173.208 378.697 172.102 377.5C170.996 376.288 169.473 375.682 167.534 375.682C166.231 375.682 165.08 375.962 164.08 376.523C163.095 377.083 162.322 377.902 161.761 378.977C161.216 380.038 160.936 381.318 160.92 382.818ZM206.824 403.682C203.248 403.682 200.172 402.924 197.597 401.409C195.036 399.879 193.066 397.758 191.688 395.045C190.324 392.333 189.642 389.212 189.642 385.682C189.642 382.106 190.331 378.97 191.71 376.273C193.104 373.561 195.081 371.447 197.642 369.932C200.203 368.402 203.248 367.636 206.778 367.636C209.824 367.636 212.491 368.189 214.778 369.295C217.066 370.402 218.877 371.955 220.21 373.955C221.544 375.955 222.278 378.303 222.415 381H213.278C213.021 379.258 212.339 377.856 211.233 376.795C210.142 375.72 208.71 375.182 206.938 375.182C205.438 375.182 204.127 375.591 203.006 376.409C201.9 377.212 201.036 378.386 200.415 379.932C199.794 381.477 199.483 383.348 199.483 385.545C199.483 387.773 199.786 389.667 200.392 391.227C201.013 392.788 201.884 393.977 203.006 394.795C204.127 395.614 205.438 396.023 206.938 396.023C208.044 396.023 209.036 395.795 209.915 395.341C210.809 394.886 211.544 394.227 212.119 393.364C212.71 392.485 213.097 391.432 213.278 390.205H222.415C222.263 392.871 221.536 395.22 220.233 397.25C218.945 399.265 217.165 400.841 214.892 401.977C212.619 403.114 209.93 403.682 206.824 403.682ZM238.295 382.818V403H228.614V356.455H238.023V374.25H238.432C239.22 372.189 240.492 370.576 242.25 369.409C244.008 368.227 246.212 367.636 248.864 367.636C251.288 367.636 253.402 368.167 255.205 369.227C257.023 370.273 258.432 371.78 259.432 373.75C260.447 375.705 260.947 378.045 260.932 380.773V403H251.25V382.5C251.265 380.348 250.72 378.674 249.614 377.477C248.523 376.28 246.992 375.682 245.023 375.682C243.705 375.682 242.538 375.962 241.523 376.523C240.523 377.083 239.735 377.902 239.159 378.977C238.598 380.038 238.311 381.318 238.295 382.818ZM305.114 380.045V387.727H283.886V380.045H305.114ZM326.29 384.545V379.977C328.911 379.977 330.729 379.455 331.744 378.409C332.759 377.364 333.267 375.674 333.267 373.341V368.318C333.267 365.515 333.653 363.273 334.426 361.591C335.214 359.894 336.305 358.614 337.699 357.75C339.108 356.886 340.775 356.311 342.699 356.023C344.623 355.735 346.729 355.591 349.017 355.591V362.818C347.229 362.818 345.866 363.053 344.926 363.523C344.002 363.977 343.373 364.689 343.04 365.659C342.706 366.614 342.54 367.826 342.54 369.295V375.932C342.54 377.083 342.328 378.182 341.903 379.227C341.479 380.258 340.691 381.174 339.54 381.977C338.388 382.765 336.744 383.394 334.608 383.864C332.472 384.318 329.699 384.545 326.29 384.545ZM349.017 413.114C346.729 413.114 344.623 412.97 342.699 412.682C340.775 412.394 339.108 411.818 337.699 410.955C336.305 410.091 335.214 408.811 334.426 407.114C333.653 405.432 333.267 403.189 333.267 400.386V395.341C333.267 393.008 332.759 391.318 331.744 390.273C330.729 389.227 328.911 388.705 326.29 388.705V384.136C329.699 384.136 332.472 384.371 334.608 384.841C336.744 385.295 338.388 385.924 339.54 386.727C340.691 387.515 341.479 388.432 341.903 389.477C342.328 390.508 342.54 391.606 342.54 392.773V399.409C342.54 400.864 342.706 402.068 343.04 403.023C343.373 403.992 344.002 404.705 344.926 405.159C345.866 405.629 347.229 405.864 349.017 405.864V413.114ZM326.29 388.705V379.977H334.449V388.705H326.29ZM352.477 384.545V379.977C355.098 379.977 356.917 379.455 357.932 378.409C358.947 377.364 359.455 375.674 359.455 373.341V368.318C359.455 365.515 359.841 363.273 360.614 361.591C361.402 359.894 362.492 358.614 363.886 357.75C365.295 356.886 366.962 356.311 368.886 356.023C370.811 355.735 372.917 355.591 375.205 355.591V362.818C373.417 362.818 372.053 363.053 371.114 363.523C370.189 363.977 369.561 364.689 369.227 365.659C368.894 366.614 368.727 367.826 368.727 369.295V375.932C368.727 377.083 368.515 378.182 368.091 379.227C367.667 380.258 366.879 381.174 365.727 381.977C364.576 382.765 362.932 383.394 360.795 383.864C358.659 384.318 355.886 384.545 352.477 384.545ZM375.205 413.114C372.917 413.114 370.811 412.97 368.886 412.682C366.962 412.394 365.295 411.818 363.886 410.955C362.492 410.091 361.402 408.811 360.614 407.114C359.841 405.432 359.455 403.189 359.455 400.386V395.341C359.455 393.008 358.947 391.318 357.932 390.273C356.917 389.227 355.098 388.705 352.477 388.705V384.136C355.886 384.136 358.659 384.371 360.795 384.841C362.932 385.295 364.576 385.924 365.727 386.727C366.879 387.515 367.667 388.432 368.091 389.477C368.515 390.508 368.727 391.606 368.727 392.773V399.409C368.727 400.864 368.894 402.068 369.227 403.023C369.561 403.992 370.189 404.705 371.114 405.159C372.053 405.629 373.417 405.864 375.205 405.864V413.114ZM352.477 388.705V379.977H360.636V388.705H352.477ZM396.011 403.682C392.436 403.682 389.36 402.924 386.784 401.409C384.223 399.879 382.254 397.758 380.875 395.045C379.511 392.333 378.83 389.212 378.83 385.682C378.83 382.106 379.519 378.97 380.898 376.273C382.292 373.561 384.269 371.447 386.83 369.932C389.39 368.402 392.436 367.636 395.966 367.636C399.011 367.636 401.678 368.189 403.966 369.295C406.254 370.402 408.064 371.955 409.398 373.955C410.731 375.955 411.466 378.303 411.602 381H402.466C402.208 379.258 401.527 377.856 400.42 376.795C399.33 375.72 397.898 375.182 396.125 375.182C394.625 375.182 393.314 375.591 392.193 376.409C391.087 377.212 390.223 378.386 389.602 379.932C388.981 381.477 388.67 383.348 388.67 385.545C388.67 387.773 388.973 389.667 389.58 391.227C390.201 392.788 391.072 393.977 392.193 394.795C393.314 395.614 394.625 396.023 396.125 396.023C397.231 396.023 398.223 395.795 399.102 395.341C399.996 394.886 400.731 394.227 401.307 393.364C401.898 392.485 402.284 391.432 402.466 390.205H411.602C411.451 392.871 410.723 395.22 409.42 397.25C408.133 399.265 406.352 400.841 404.08 401.977C401.807 403.114 399.117 403.682 396.011 403.682ZM427.756 403.659C425.528 403.659 423.544 403.273 421.801 402.5C420.059 401.712 418.68 400.553 417.665 399.023C416.665 397.477 416.165 395.553 416.165 393.25C416.165 391.311 416.521 389.682 417.233 388.364C417.945 387.045 418.915 385.985 420.142 385.182C421.369 384.379 422.763 383.773 424.324 383.364C425.9 382.955 427.551 382.667 429.278 382.5C431.309 382.288 432.945 382.091 434.188 381.909C435.43 381.712 436.331 381.424 436.892 381.045C437.453 380.667 437.733 380.106 437.733 379.364V379.227C437.733 377.788 437.278 376.674 436.369 375.886C435.475 375.098 434.203 374.705 432.551 374.705C430.809 374.705 429.422 375.091 428.392 375.864C427.362 376.621 426.68 377.576 426.347 378.727L417.392 378C417.847 375.879 418.741 374.045 420.074 372.5C421.407 370.939 423.127 369.742 425.233 368.909C427.354 368.061 429.809 367.636 432.597 367.636C434.536 367.636 436.392 367.864 438.165 368.318C439.953 368.773 441.536 369.477 442.915 370.432C444.309 371.386 445.407 372.614 446.21 374.114C447.013 375.598 447.415 377.379 447.415 379.455V403H438.233V398.159H437.96C437.4 399.25 436.65 400.212 435.71 401.045C434.771 401.864 433.642 402.508 432.324 402.977C431.006 403.432 429.483 403.659 427.756 403.659ZM430.528 396.977C431.953 396.977 433.21 396.697 434.301 396.136C435.392 395.561 436.248 394.788 436.869 393.818C437.491 392.848 437.801 391.75 437.801 390.523V386.818C437.498 387.015 437.081 387.197 436.551 387.364C436.036 387.515 435.453 387.659 434.801 387.795C434.15 387.917 433.498 388.03 432.847 388.136C432.195 388.227 431.604 388.311 431.074 388.386C429.938 388.553 428.945 388.818 428.097 389.182C427.248 389.545 426.589 390.038 426.119 390.659C425.65 391.265 425.415 392.023 425.415 392.932C425.415 394.25 425.892 395.258 426.847 395.955C427.816 396.636 429.044 396.977 430.528 396.977ZM473.494 368.091V375.364H452.472V368.091H473.494ZM457.244 359.727H466.926V392.273C466.926 393.167 467.063 393.864 467.335 394.364C467.608 394.848 467.987 395.189 468.472 395.386C468.972 395.583 469.547 395.682 470.199 395.682C470.653 395.682 471.108 395.644 471.562 395.568C472.017 395.477 472.366 395.409 472.608 395.364L474.131 402.568C473.646 402.72 472.964 402.894 472.085 403.091C471.206 403.303 470.138 403.432 468.881 403.477C466.547 403.568 464.502 403.258 462.744 402.545C461.002 401.833 459.646 400.727 458.676 399.227C457.706 397.727 457.229 395.833 457.244 393.545V359.727ZM495.335 403.682C491.744 403.682 488.653 402.955 486.062 401.5C483.487 400.03 481.502 397.955 480.108 395.273C478.714 392.576 478.017 389.386 478.017 385.705C478.017 382.114 478.714 378.962 480.108 376.25C481.502 373.538 483.464 371.424 485.994 369.909C488.54 368.394 491.525 367.636 494.949 367.636C497.252 367.636 499.396 368.008 501.381 368.75C503.381 369.477 505.123 370.576 506.608 372.045C508.108 373.515 509.275 375.364 510.108 377.591C510.941 379.803 511.358 382.394 511.358 385.364V388.023H481.881V382.023H502.244C502.244 380.629 501.941 379.394 501.335 378.318C500.729 377.242 499.888 376.402 498.812 375.795C497.752 375.174 496.517 374.864 495.108 374.864C493.638 374.864 492.335 375.205 491.199 375.886C490.078 376.553 489.199 377.455 488.562 378.591C487.926 379.712 487.6 380.962 487.585 382.341V388.045C487.585 389.773 487.903 391.265 488.54 392.523C489.191 393.78 490.108 394.75 491.29 395.432C492.472 396.114 493.873 396.455 495.494 396.455C496.57 396.455 497.555 396.303 498.449 396C499.343 395.697 500.108 395.242 500.744 394.636C501.381 394.03 501.866 393.288 502.199 392.409L511.153 393C510.699 395.152 509.767 397.03 508.358 398.636C506.964 400.227 505.161 401.47 502.949 402.364C500.752 403.242 498.214 403.682 495.335 403.682ZM533.403 416.818C530.267 416.818 527.578 416.386 525.335 415.523C523.108 414.674 521.335 413.515 520.017 412.045C518.699 410.576 517.843 408.924 517.449 407.091L526.403 405.886C526.676 406.583 527.108 407.235 527.699 407.841C528.29 408.447 529.07 408.932 530.04 409.295C531.025 409.674 532.222 409.864 533.631 409.864C535.737 409.864 537.472 409.348 538.835 408.318C540.214 407.303 540.903 405.598 540.903 403.205V396.818H540.494C540.07 397.788 539.434 398.705 538.585 399.568C537.737 400.432 536.646 401.136 535.312 401.682C533.979 402.227 532.388 402.5 530.54 402.5C527.919 402.5 525.532 401.894 523.381 400.682C521.244 399.455 519.54 397.583 518.267 395.068C517.009 392.538 516.381 389.341 516.381 385.477C516.381 381.523 517.025 378.22 518.312 375.568C519.6 372.917 521.313 370.932 523.449 369.614C525.6 368.295 527.956 367.636 530.517 367.636C532.472 367.636 534.108 367.97 535.426 368.636C536.744 369.288 537.805 370.106 538.608 371.091C539.426 372.061 540.055 373.015 540.494 373.955H540.858V368.091H550.472V403.341C550.472 406.311 549.744 408.795 548.29 410.795C546.835 412.795 544.82 414.295 542.244 415.295C539.684 416.311 536.737 416.818 533.403 416.818ZM533.608 395.227C535.169 395.227 536.487 394.841 537.562 394.068C538.653 393.28 539.487 392.159 540.062 390.705C540.653 389.235 540.949 387.477 540.949 385.432C540.949 383.386 540.661 381.614 540.085 380.114C539.509 378.598 538.676 377.424 537.585 376.591C536.494 375.758 535.169 375.341 533.608 375.341C532.017 375.341 530.676 375.773 529.585 376.636C528.494 377.485 527.669 378.667 527.108 380.182C526.547 381.697 526.267 383.447 526.267 385.432C526.267 387.447 526.547 389.189 527.108 390.659C527.684 392.114 528.509 393.242 529.585 394.045C530.676 394.833 532.017 395.227 533.608 395.227ZM573.949 403.682C570.419 403.682 567.366 402.932 564.79 401.432C562.229 399.917 560.252 397.811 558.858 395.114C557.464 392.402 556.767 389.258 556.767 385.682C556.767 382.076 557.464 378.924 558.858 376.227C560.252 373.515 562.229 371.409 564.79 369.909C567.366 368.394 570.419 367.636 573.949 367.636C577.479 367.636 580.525 368.394 583.085 369.909C585.661 371.409 587.646 373.515 589.04 376.227C590.434 378.924 591.131 382.076 591.131 385.682C591.131 389.258 590.434 392.402 589.04 395.114C587.646 397.811 585.661 399.917 583.085 401.432C580.525 402.932 577.479 403.682 573.949 403.682ZM573.994 396.182C575.6 396.182 576.941 395.727 578.017 394.818C579.093 393.894 579.903 392.636 580.449 391.045C581.009 389.455 581.29 387.644 581.29 385.614C581.29 383.583 581.009 381.773 580.449 380.182C579.903 378.591 579.093 377.333 578.017 376.409C576.941 375.485 575.6 375.023 573.994 375.023C572.373 375.023 571.009 375.485 569.903 376.409C568.813 377.333 567.987 378.591 567.426 380.182C566.881 381.773 566.608 383.583 566.608 385.614C566.608 387.644 566.881 389.455 567.426 391.045C567.987 392.636 568.813 393.894 569.903 394.818C571.009 395.727 572.373 396.182 573.994 396.182ZM597.426 403V368.091H606.812V374.182H607.176C607.813 372.015 608.881 370.379 610.381 369.273C611.881 368.152 613.608 367.591 615.562 367.591C616.047 367.591 616.57 367.621 617.131 367.682C617.691 367.742 618.184 367.826 618.608 367.932V376.523C618.153 376.386 617.525 376.265 616.722 376.159C615.919 376.053 615.184 376 614.517 376C613.093 376 611.82 376.311 610.699 376.932C609.593 377.538 608.714 378.386 608.062 379.477C607.426 380.568 607.108 381.826 607.108 383.25V403H597.426ZM630.653 416.091C629.426 416.091 628.275 415.992 627.199 415.795C626.138 415.614 625.259 415.379 624.562 415.091L626.744 407.864C627.881 408.212 628.903 408.402 629.812 408.432C630.737 408.462 631.532 408.25 632.199 407.795C632.881 407.341 633.434 406.568 633.858 405.477L634.426 404L621.903 368.091H632.085L639.312 393.727H639.676L646.972 368.091H657.222L643.653 406.773C643.002 408.652 642.116 410.288 640.994 411.682C639.888 413.091 638.487 414.174 636.79 414.932C635.093 415.705 633.047 416.091 630.653 416.091ZM682.517 384.136V388.705C679.911 388.705 678.093 389.227 677.062 390.273C676.047 391.318 675.54 393.008 675.54 395.341V400.386C675.54 403.189 675.146 405.432 674.358 407.114C673.585 408.811 672.494 410.091 671.085 410.955C669.691 411.818 668.032 412.394 666.108 412.682C664.199 412.97 662.093 413.114 659.79 413.114V405.864C661.578 405.864 662.934 405.629 663.858 405.159C664.797 404.705 665.434 403.992 665.767 403.023C666.1 402.068 666.267 400.864 666.267 399.409V392.773C666.267 391.606 666.479 390.508 666.903 389.477C667.328 388.432 668.116 387.515 669.267 386.727C670.419 385.924 672.063 385.295 674.199 384.841C676.335 384.371 679.108 384.136 682.517 384.136ZM659.79 355.591C662.093 355.591 664.199 355.735 666.108 356.023C668.032 356.311 669.691 356.886 671.085 357.75C672.494 358.614 673.585 359.894 674.358 361.591C675.146 363.273 675.54 365.515 675.54 368.318V373.341C675.54 375.674 676.047 377.364 677.062 378.409C678.093 379.455 679.911 379.977 682.517 379.977V384.545C679.108 384.545 676.335 384.318 674.199 383.864C672.063 383.394 670.419 382.765 669.267 381.977C668.116 381.174 667.328 380.258 666.903 379.227C666.479 378.182 666.267 377.083 666.267 375.932V369.295C666.267 367.826 666.1 366.614 665.767 365.659C665.434 364.689 664.797 363.977 663.858 363.523C662.934 363.053 661.578 362.818 659.79 362.818V355.591ZM682.517 379.977V388.705H674.358V379.977H682.517ZM708.705 384.136V388.705C706.098 388.705 704.28 389.227 703.25 390.273C702.235 391.318 701.727 393.008 701.727 395.341V400.386C701.727 403.189 701.333 405.432 700.545 407.114C699.773 408.811 698.682 410.091 697.273 410.955C695.879 411.818 694.22 412.394 692.295 412.682C690.386 412.97 688.28 413.114 685.977 413.114V405.864C687.765 405.864 689.121 405.629 690.045 405.159C690.985 404.705 691.621 403.992 691.955 403.023C692.288 402.068 692.455 400.864 692.455 399.409V392.773C692.455 391.606 692.667 390.508 693.091 389.477C693.515 388.432 694.303 387.515 695.455 386.727C696.606 385.924 698.25 385.295 700.386 384.841C702.523 384.371 705.295 384.136 708.705 384.136ZM685.977 355.591C688.28 355.591 690.386 355.735 692.295 356.023C694.22 356.311 695.879 356.886 697.273 357.75C698.682 358.614 699.773 359.894 700.545 361.591C701.333 363.273 701.727 365.515 701.727 368.318V373.341C701.727 375.674 702.235 377.364 703.25 378.409C704.28 379.455 706.098 379.977 708.705 379.977V384.545C705.295 384.545 702.523 384.318 700.386 383.864C698.25 383.394 696.606 382.765 695.455 381.977C694.303 381.174 693.515 380.258 693.091 379.227C692.667 378.182 692.455 377.083 692.455 375.932V369.295C692.455 367.826 692.288 366.614 691.955 365.659C691.621 364.689 690.985 363.977 690.045 363.523C689.121 363.053 687.765 362.818 685.977 362.818V355.591ZM708.705 379.977V388.705H700.545V379.977H708.705Z" fill="white"/>
<path d="M61.1818 449.227V447.818C62.447 447.818 63.3295 447.553 63.8295 447.023C64.3371 446.492 64.5909 445.606 64.5909 444.364V440.727C64.5909 439.682 64.6894 438.777 64.8864 438.011C65.0909 437.246 65.4205 436.614 65.875 436.114C66.3295 435.614 66.9356 435.242 67.6932 435C68.4508 434.758 69.3864 434.636 70.5 434.636V436.864C69.6212 436.864 68.928 437 68.4205 437.273C67.9205 437.545 67.5644 437.97 67.3523 438.545C67.1477 439.114 67.0455 439.841 67.0455 440.727V445.273C67.0455 445.864 66.9659 446.402 66.8068 446.886C66.6553 447.371 66.3712 447.788 65.9545 448.136C65.5379 448.485 64.9432 448.754 64.1705 448.943C63.4053 449.133 62.4091 449.227 61.1818 449.227ZM70.5 463.727C69.3864 463.727 68.4508 463.606 67.6932 463.364C66.9356 463.121 66.3295 462.75 65.875 462.25C65.4205 461.75 65.0909 461.117 64.8864 460.352C64.6894 459.587 64.5909 458.682 64.5909 457.636V454C64.5909 452.758 64.3371 451.871 63.8295 451.341C63.3295 450.811 62.447 450.545 61.1818 450.545V449.136C62.4091 449.136 63.4053 449.231 64.1705 449.42C64.9432 449.61 65.5379 449.879 65.9545 450.227C66.3712 450.576 66.6553 450.992 66.8068 451.477C66.9659 451.962 67.0455 452.5 67.0455 453.091V457.636C67.0455 458.523 67.1477 459.25 67.3523 459.818C67.5644 460.386 67.9205 460.807 68.4205 461.08C68.928 461.36 69.6212 461.5 70.5 461.5V463.727ZM61.1818 450.545V447.818H63.8636V450.545H61.1818ZM72.7756 449.227V447.818C74.0407 447.818 74.9233 447.553 75.4233 447.023C75.9309 446.492 76.1847 445.606 76.1847 444.364V440.727C76.1847 439.682 76.2831 438.777 76.4801 438.011C76.6847 437.246 77.0142 436.614 77.4688 436.114C77.9233 435.614 78.5294 435.242 79.2869 435C80.0445 434.758 80.9801 434.636 82.0938 434.636V436.864C81.215 436.864 80.5218 437 80.0142 437.273C79.5142 437.545 79.1581 437.97 78.946 438.545C78.7415 439.114 78.6392 439.841 78.6392 440.727V445.273C78.6392 445.864 78.5597 446.402 78.4006 446.886C78.2491 447.371 77.965 447.788 77.5483 448.136C77.1316 448.485 76.5369 448.754 75.7642 448.943C74.9991 449.133 74.0028 449.227 72.7756 449.227ZM82.0938 463.727C80.9801 463.727 80.0445 463.606 79.2869 463.364C78.5294 463.121 77.9233 462.75 77.4688 462.25C77.0142 461.75 76.6847 461.117 76.4801 460.352C76.2831 459.587 76.1847 458.682 76.1847 457.636V454C76.1847 452.758 75.9309 451.871 75.4233 451.341C74.9233 450.811 74.0407 450.545 72.7756 450.545V449.136C74.0028 449.136 74.9991 449.231 75.7642 449.42C76.5369 449.61 77.1316 449.879 77.5483 450.227C77.965 450.576 78.2491 450.992 78.4006 451.477C78.5597 451.962 78.6392 452.5 78.6392 453.091V457.636C78.6392 458.523 78.7415 459.25 78.946 459.818C79.1581 460.386 79.5142 460.807 80.0142 461.08C80.5218 461.36 81.215 461.5 82.0938 461.5V463.727ZM72.7756 450.545V447.818H75.4574V450.545H72.7756ZM88.3239 435.727V459H85.642V435.727H88.3239ZM93.2358 459V441.545H95.9176V459H93.2358ZM94.5994 438.636C94.0767 438.636 93.6259 438.458 93.2472 438.102C92.8759 437.746 92.6903 437.318 92.6903 436.818C92.6903 436.318 92.8759 435.89 93.2472 435.534C93.6259 435.178 94.0767 435 94.5994 435C95.1222 435 95.5691 435.178 95.9403 435.534C96.3191 435.89 96.5085 436.318 96.5085 436.818C96.5085 437.318 96.3191 437.746 95.9403 438.102C95.5691 438.458 95.1222 438.636 94.5994 438.636ZM103.511 448.5V459H100.83V441.545H103.42V444.273H103.648C104.057 443.386 104.678 442.674 105.511 442.136C106.345 441.591 107.42 441.318 108.739 441.318C109.92 441.318 110.955 441.561 111.841 442.045C112.727 442.523 113.417 443.25 113.909 444.227C114.402 445.197 114.648 446.424 114.648 447.909V459H111.966V448.091C111.966 446.72 111.61 445.652 110.898 444.886C110.186 444.114 109.208 443.727 107.966 443.727C107.11 443.727 106.345 443.913 105.67 444.284C105.004 444.655 104.477 445.197 104.091 445.909C103.705 446.621 103.511 447.485 103.511 448.5ZM126.866 459.364C125.185 459.364 123.734 458.992 122.514 458.25C121.302 457.5 120.366 456.455 119.707 455.114C119.056 453.765 118.73 452.197 118.73 450.409C118.73 448.621 119.056 447.045 119.707 445.682C120.366 444.311 121.283 443.242 122.457 442.477C123.639 441.705 125.018 441.318 126.594 441.318C127.503 441.318 128.401 441.47 129.287 441.773C130.173 442.076 130.98 442.568 131.707 443.25C132.435 443.924 133.014 444.818 133.446 445.932C133.878 447.045 134.094 448.417 134.094 450.045V451.182H120.639V448.864H131.366C131.366 447.879 131.17 447 130.776 446.227C130.389 445.455 129.836 444.845 129.116 444.398C128.404 443.951 127.563 443.727 126.594 443.727C125.526 443.727 124.601 443.992 123.821 444.523C123.048 445.045 122.454 445.727 122.037 446.568C121.62 447.409 121.412 448.311 121.412 449.273V450.818C121.412 452.136 121.639 453.254 122.094 454.17C122.556 455.08 123.196 455.773 124.014 456.25C124.832 456.72 125.783 456.955 126.866 456.955C127.571 456.955 128.207 456.856 128.776 456.659C129.351 456.455 129.848 456.152 130.264 455.75C130.681 455.341 131.003 454.833 131.23 454.227L133.821 454.955C133.548 455.833 133.09 456.606 132.446 457.273C131.802 457.932 131.007 458.447 130.06 458.818C129.113 459.182 128.048 459.364 126.866 459.364ZM146.31 435.727V459H143.491V438.682H143.355L137.673 442.455V439.591L143.491 435.727H146.31ZM161.003 447.318V448.727C159.738 448.727 158.851 448.992 158.344 449.523C157.844 450.053 157.594 450.939 157.594 452.182V455.818C157.594 456.864 157.491 457.769 157.287 458.534C157.09 459.299 156.764 459.932 156.31 460.432C155.855 460.932 155.249 461.303 154.491 461.545C153.734 461.788 152.798 461.909 151.685 461.909V459.682C152.563 459.682 153.253 459.542 153.753 459.261C154.26 458.989 154.616 458.568 154.821 458C155.033 457.432 155.139 456.705 155.139 455.818V451.273C155.139 450.682 155.215 450.144 155.366 449.659C155.526 449.174 155.813 448.758 156.23 448.409C156.647 448.061 157.238 447.792 158.003 447.602C158.776 447.413 159.776 447.318 161.003 447.318ZM151.685 432.818C152.798 432.818 153.734 432.939 154.491 433.182C155.249 433.424 155.855 433.795 156.31 434.295C156.764 434.795 157.09 435.428 157.287 436.193C157.491 436.958 157.594 437.864 157.594 438.909V442.545C157.594 443.788 157.844 444.674 158.344 445.205C158.851 445.735 159.738 446 161.003 446V447.409C159.776 447.409 158.776 447.314 158.003 447.125C157.238 446.936 156.647 446.667 156.23 446.318C155.813 445.97 155.526 445.553 155.366 445.068C155.215 444.583 155.139 444.045 155.139 443.455V438.909C155.139 438.023 155.033 437.295 154.821 436.727C154.616 436.152 154.26 435.727 153.753 435.455C153.253 435.182 152.563 435.045 151.685 435.045V432.818ZM161.003 446V448.727H158.321V446H161.003ZM172.597 447.318V448.727C171.331 448.727 170.445 448.992 169.938 449.523C169.438 450.053 169.188 450.939 169.188 452.182V455.818C169.188 456.864 169.085 457.769 168.881 458.534C168.684 459.299 168.358 459.932 167.903 460.432C167.449 460.932 166.843 461.303 166.085 461.545C165.328 461.788 164.392 461.909 163.278 461.909V459.682C164.157 459.682 164.847 459.542 165.347 459.261C165.854 458.989 166.21 458.568 166.415 458C166.627 457.432 166.733 456.705 166.733 455.818V451.273C166.733 450.682 166.809 450.144 166.96 449.659C167.119 449.174 167.407 448.758 167.824 448.409C168.241 448.061 168.831 447.792 169.597 447.602C170.369 447.413 171.369 447.318 172.597 447.318ZM163.278 432.818C164.392 432.818 165.328 432.939 166.085 433.182C166.843 433.424 167.449 433.795 167.903 434.295C168.358 434.795 168.684 435.428 168.881 436.193C169.085 436.958 169.188 437.864 169.188 438.909V442.545C169.188 443.788 169.438 444.674 169.938 445.205C170.445 445.735 171.331 446 172.597 446V447.409C171.369 447.409 170.369 447.314 169.597 447.125C168.831 446.936 168.241 446.667 167.824 446.318C167.407 445.97 167.119 445.553 166.96 445.068C166.809 444.583 166.733 444.045 166.733 443.455V438.909C166.733 438.023 166.627 437.295 166.415 436.727C166.21 436.152 165.854 435.727 165.347 435.455C164.847 435.182 164.157 435.045 163.278 435.045V432.818ZM172.597 446V448.727H169.915V446H172.597Z" fill="white"/>
<path d="M61.1818 498.227V496.818C62.447 496.818 63.3295 496.553 63.8295 496.023C64.3371 495.492 64.5909 494.606 64.5909 493.364V489.727C64.5909 488.682 64.6894 487.777 64.8864 487.011C65.0909 486.246 65.4205 485.614 65.875 485.114C66.3295 484.614 66.9356 484.242 67.6932 484C68.4508 483.758 69.3864 483.636 70.5 483.636V485.864C69.6212 485.864 68.928 486 68.4205 486.273C67.9205 486.545 67.5644 486.97 67.3523 487.545C67.1477 488.114 67.0455 488.841 67.0455 489.727V494.273C67.0455 494.864 66.9659 495.402 66.8068 495.886C66.6553 496.371 66.3712 496.788 65.9545 497.136C65.5379 497.485 64.9432 497.754 64.1705 497.943C63.4053 498.133 62.4091 498.227 61.1818 498.227ZM70.5 512.727C69.3864 512.727 68.4508 512.606 67.6932 512.364C66.9356 512.121 66.3295 511.75 65.875 511.25C65.4205 510.75 65.0909 510.117 64.8864 509.352C64.6894 508.587 64.5909 507.682 64.5909 506.636V503C64.5909 501.758 64.3371 500.871 63.8295 500.341C63.3295 499.811 62.447 499.545 61.1818 499.545V498.136C62.4091 498.136 63.4053 498.231 64.1705 498.42C64.9432 498.61 65.5379 498.879 65.9545 499.227C66.3712 499.576 66.6553 499.992 66.8068 500.477C66.9659 500.962 67.0455 501.5 67.0455 502.091V506.636C67.0455 507.523 67.1477 508.25 67.3523 508.818C67.5644 509.386 67.9205 509.807 68.4205 510.08C68.928 510.36 69.6212 510.5 70.5 510.5V512.727ZM61.1818 499.545V496.818H63.8636V499.545H61.1818ZM72.7756 498.227V496.818C74.0407 496.818 74.9233 496.553 75.4233 496.023C75.9309 495.492 76.1847 494.606 76.1847 493.364V489.727C76.1847 488.682 76.2831 487.777 76.4801 487.011C76.6847 486.246 77.0142 485.614 77.4688 485.114C77.9233 484.614 78.5294 484.242 79.2869 484C80.0445 483.758 80.9801 483.636 82.0938 483.636V485.864C81.215 485.864 80.5218 486 80.0142 486.273C79.5142 486.545 79.1581 486.97 78.946 487.545C78.7415 488.114 78.6392 488.841 78.6392 489.727V494.273C78.6392 494.864 78.5597 495.402 78.4006 495.886C78.2491 496.371 77.965 496.788 77.5483 497.136C77.1316 497.485 76.5369 497.754 75.7642 497.943C74.9991 498.133 74.0028 498.227 72.7756 498.227ZM82.0938 512.727C80.9801 512.727 80.0445 512.606 79.2869 512.364C78.5294 512.121 77.9233 511.75 77.4688 511.25C77.0142 510.75 76.6847 510.117 76.4801 509.352C76.2831 508.587 76.1847 507.682 76.1847 506.636V503C76.1847 501.758 75.9309 500.871 75.4233 500.341C74.9233 499.811 74.0407 499.545 72.7756 499.545V498.136C74.0028 498.136 74.9991 498.231 75.7642 498.42C76.5369 498.61 77.1316 498.879 77.5483 499.227C77.965 499.576 78.2491 499.992 78.4006 500.477C78.5597 500.962 78.6392 501.5 78.6392 502.091V506.636C78.6392 507.523 78.7415 508.25 78.946 508.818C79.1581 509.386 79.5142 509.807 80.0142 510.08C80.5218 510.36 81.215 510.5 82.0938 510.5V512.727ZM72.7756 499.545V496.818H75.4574V499.545H72.7756ZM88.3239 484.727V508H85.642V484.727H88.3239ZM93.2358 508V490.545H95.9176V508H93.2358ZM94.5994 487.636C94.0767 487.636 93.6259 487.458 93.2472 487.102C92.8759 486.746 92.6903 486.318 92.6903 485.818C92.6903 485.318 92.8759 484.89 93.2472 484.534C93.6259 484.178 94.0767 484 94.5994 484C95.1222 484 95.5691 484.178 95.9403 484.534C96.3191 484.89 96.5085 485.318 96.5085 485.818C96.5085 486.318 96.3191 486.746 95.9403 487.102C95.5691 487.458 95.1222 487.636 94.5994 487.636ZM103.511 497.5V508H100.83V490.545H103.42V493.273H103.648C104.057 492.386 104.678 491.674 105.511 491.136C106.345 490.591 107.42 490.318 108.739 490.318C109.92 490.318 110.955 490.561 111.841 491.045C112.727 491.523 113.417 492.25 113.909 493.227C114.402 494.197 114.648 495.424 114.648 496.909V508H111.966V497.091C111.966 495.72 111.61 494.652 110.898 493.886C110.186 493.114 109.208 492.727 107.966 492.727C107.11 492.727 106.345 492.913 105.67 493.284C105.004 493.655 104.477 494.197 104.091 494.909C103.705 495.621 103.511 496.485 103.511 497.5ZM126.866 508.364C125.185 508.364 123.734 507.992 122.514 507.25C121.302 506.5 120.366 505.455 119.707 504.114C119.056 502.765 118.73 501.197 118.73 499.409C118.73 497.621 119.056 496.045 119.707 494.682C120.366 493.311 121.283 492.242 122.457 491.477C123.639 490.705 125.018 490.318 126.594 490.318C127.503 490.318 128.401 490.47 129.287 490.773C130.173 491.076 130.98 491.568 131.707 492.25C132.435 492.924 133.014 493.818 133.446 494.932C133.878 496.045 134.094 497.417 134.094 499.045V500.182H120.639V497.864H131.366C131.366 496.879 131.17 496 130.776 495.227C130.389 494.455 129.836 493.845 129.116 493.398C128.404 492.951 127.563 492.727 126.594 492.727C125.526 492.727 124.601 492.992 123.821 493.523C123.048 494.045 122.454 494.727 122.037 495.568C121.62 496.409 121.412 497.311 121.412 498.273V499.818C121.412 501.136 121.639 502.254 122.094 503.17C122.556 504.08 123.196 504.773 124.014 505.25C124.832 505.72 125.783 505.955 126.866 505.955C127.571 505.955 128.207 505.856 128.776 505.659C129.351 505.455 129.848 505.152 130.264 504.75C130.681 504.341 131.003 503.833 131.23 503.227L133.821 503.955C133.548 504.833 133.09 505.606 132.446 506.273C131.802 506.932 131.007 507.447 130.06 507.818C129.113 508.182 128.048 508.364 126.866 508.364ZM138.128 508V505.955L145.81 497.545C146.711 496.561 147.454 495.705 148.037 494.977C148.62 494.242 149.052 493.553 149.332 492.909C149.62 492.258 149.764 491.576 149.764 490.864C149.764 490.045 149.567 489.337 149.173 488.739C148.787 488.14 148.257 487.678 147.582 487.352C146.908 487.027 146.151 486.864 145.31 486.864C144.416 486.864 143.635 487.049 142.969 487.42C142.31 487.784 141.798 488.295 141.435 488.955C141.079 489.614 140.901 490.386 140.901 491.273H138.219C138.219 489.909 138.533 488.712 139.162 487.682C139.791 486.652 140.647 485.848 141.73 485.273C142.821 484.697 144.045 484.409 145.401 484.409C146.764 484.409 147.973 484.697 149.026 485.273C150.079 485.848 150.904 486.625 151.503 487.602C152.101 488.58 152.401 489.667 152.401 490.864C152.401 491.72 152.245 492.557 151.935 493.375C151.632 494.186 151.101 495.091 150.344 496.091C149.594 497.083 148.552 498.295 147.219 499.727L141.991 505.318V505.5H152.81V508H138.128ZM165.503 496.318V497.727C164.238 497.727 163.351 497.992 162.844 498.523C162.344 499.053 162.094 499.939 162.094 501.182V504.818C162.094 505.864 161.991 506.769 161.787 507.534C161.59 508.299 161.264 508.932 160.81 509.432C160.355 509.932 159.749 510.303 158.991 510.545C158.234 510.788 157.298 510.909 156.185 510.909V508.682C157.063 508.682 157.753 508.542 158.253 508.261C158.76 507.989 159.116 507.568 159.321 507C159.533 506.432 159.639 505.705 159.639 504.818V500.273C159.639 499.682 159.715 499.144 159.866 498.659C160.026 498.174 160.313 497.758 160.73 497.409C161.147 497.061 161.738 496.792 162.503 496.602C163.276 496.413 164.276 496.318 165.503 496.318ZM156.185 481.818C157.298 481.818 158.234 481.939 158.991 482.182C159.749 482.424 160.355 482.795 160.81 483.295C161.264 483.795 161.59 484.428 161.787 485.193C161.991 485.958 162.094 486.864 162.094 487.909V491.545C162.094 492.788 162.344 493.674 162.844 494.205C163.351 494.735 164.238 495 165.503 495V496.409C164.276 496.409 163.276 496.314 162.503 496.125C161.738 495.936 161.147 495.667 160.73 495.318C160.313 494.97 160.026 494.553 159.866 494.068C159.715 493.583 159.639 493.045 159.639 492.455V487.909C159.639 487.023 159.533 486.295 159.321 485.727C159.116 485.152 158.76 484.727 158.253 484.455C157.753 484.182 157.063 484.045 156.185 484.045V481.818ZM165.503 495V497.727H162.821V495H165.503ZM177.097 496.318V497.727C175.831 497.727 174.945 497.992 174.438 498.523C173.938 499.053 173.688 499.939 173.688 501.182V504.818C173.688 505.864 173.585 506.769 173.381 507.534C173.184 508.299 172.858 508.932 172.403 509.432C171.949 509.932 171.343 510.303 170.585 510.545C169.828 510.788 168.892 510.909 167.778 510.909V508.682C168.657 508.682 169.347 508.542 169.847 508.261C170.354 507.989 170.71 507.568 170.915 507C171.127 506.432 171.233 505.705 171.233 504.818V500.273C171.233 499.682 171.309 499.144 171.46 498.659C171.619 498.174 171.907 497.758 172.324 497.409C172.741 497.061 173.331 496.792 174.097 496.602C174.869 496.413 175.869 496.318 177.097 496.318ZM167.778 481.818C168.892 481.818 169.828 481.939 170.585 482.182C171.343 482.424 171.949 482.795 172.403 483.295C172.858 483.795 173.184 484.428 173.381 485.193C173.585 485.958 173.688 486.864 173.688 487.909V491.545C173.688 492.788 173.938 493.674 174.438 494.205C174.945 494.735 175.831 495 177.097 495V496.409C175.869 496.409 174.869 496.314 174.097 496.125C173.331 495.936 172.741 495.667 172.324 495.318C171.907 494.97 171.619 494.553 171.46 494.068C171.309 493.583 171.233 493.045 171.233 492.455V487.909C171.233 487.023 171.127 486.295 170.915 485.727C170.71 485.152 170.354 484.727 169.847 484.455C169.347 484.182 168.657 484.045 167.778 484.045V481.818ZM177.097 495V497.727H174.415V495H177.097Z" fill="white"/>
<path d="M61.1818 547.227V545.818C62.447 545.818 63.3295 545.553 63.8295 545.023C64.3371 544.492 64.5909 543.606 64.5909 542.364V538.727C64.5909 537.682 64.6894 536.777 64.8864 536.011C65.0909 535.246 65.4205 534.614 65.875 534.114C66.3295 533.614 66.9356 533.242 67.6932 533C68.4508 532.758 69.3864 532.636 70.5 532.636V534.864C69.6212 534.864 68.928 535 68.4205 535.273C67.9205 535.545 67.5644 535.97 67.3523 536.545C67.1477 537.114 67.0455 537.841 67.0455 538.727V543.273C67.0455 543.864 66.9659 544.402 66.8068 544.886C66.6553 545.371 66.3712 545.788 65.9545 546.136C65.5379 546.485 64.9432 546.754 64.1705 546.943C63.4053 547.133 62.4091 547.227 61.1818 547.227ZM70.5 561.727C69.3864 561.727 68.4508 561.606 67.6932 561.364C66.9356 561.121 66.3295 560.75 65.875 560.25C65.4205 559.75 65.0909 559.117 64.8864 558.352C64.6894 557.587 64.5909 556.682 64.5909 555.636V552C64.5909 550.758 64.3371 549.871 63.8295 549.341C63.3295 548.811 62.447 548.545 61.1818 548.545V547.136C62.4091 547.136 63.4053 547.231 64.1705 547.42C64.9432 547.61 65.5379 547.879 65.9545 548.227C66.3712 548.576 66.6553 548.992 66.8068 549.477C66.9659 549.962 67.0455 550.5 67.0455 551.091V555.636C67.0455 556.523 67.1477 557.25 67.3523 557.818C67.5644 558.386 67.9205 558.807 68.4205 559.08C68.928 559.36 69.6212 559.5 70.5 559.5V561.727ZM61.1818 548.545V545.818H63.8636V548.545H61.1818ZM72.7756 547.227V545.818C74.0407 545.818 74.9233 545.553 75.4233 545.023C75.9309 544.492 76.1847 543.606 76.1847 542.364V538.727C76.1847 537.682 76.2831 536.777 76.4801 536.011C76.6847 535.246 77.0142 534.614 77.4688 534.114C77.9233 533.614 78.5294 533.242 79.2869 533C80.0445 532.758 80.9801 532.636 82.0938 532.636V534.864C81.215 534.864 80.5218 535 80.0142 535.273C79.5142 535.545 79.1581 535.97 78.946 536.545C78.7415 537.114 78.6392 537.841 78.6392 538.727V543.273C78.6392 543.864 78.5597 544.402 78.4006 544.886C78.2491 545.371 77.965 545.788 77.5483 546.136C77.1316 546.485 76.5369 546.754 75.7642 546.943C74.9991 547.133 74.0028 547.227 72.7756 547.227ZM82.0938 561.727C80.9801 561.727 80.0445 561.606 79.2869 561.364C78.5294 561.121 77.9233 560.75 77.4688 560.25C77.0142 559.75 76.6847 559.117 76.4801 558.352C76.2831 557.587 76.1847 556.682 76.1847 555.636V552C76.1847 550.758 75.9309 549.871 75.4233 549.341C74.9233 548.811 74.0407 548.545 72.7756 548.545V547.136C74.0028 547.136 74.9991 547.231 75.7642 547.42C76.5369 547.61 77.1316 547.879 77.5483 548.227C77.965 548.576 78.2491 548.992 78.4006 549.477C78.5597 549.962 78.6392 550.5 78.6392 551.091V555.636C78.6392 556.523 78.7415 557.25 78.946 557.818C79.1581 558.386 79.5142 558.807 80.0142 559.08C80.5218 559.36 81.215 559.5 82.0938 559.5V561.727ZM72.7756 548.545V545.818H75.4574V548.545H72.7756ZM88.3239 533.727V557H85.642V533.727H88.3239ZM93.2358 557V539.545H95.9176V557H93.2358ZM94.5994 536.636C94.0767 536.636 93.6259 536.458 93.2472 536.102C92.8759 535.746 92.6903 535.318 92.6903 534.818C92.6903 534.318 92.8759 533.89 93.2472 533.534C93.6259 533.178 94.0767 533 94.5994 533C95.1222 533 95.5691 533.178 95.9403 533.534C96.3191 533.89 96.5085 534.318 96.5085 534.818C96.5085 535.318 96.3191 535.746 95.9403 536.102C95.5691 536.458 95.1222 536.636 94.5994 536.636ZM103.511 546.5V557H100.83V539.545H103.42V542.273H103.648C104.057 541.386 104.678 540.674 105.511 540.136C106.345 539.591 107.42 539.318 108.739 539.318C109.92 539.318 110.955 539.561 111.841 540.045C112.727 540.523 113.417 541.25 113.909 542.227C114.402 543.197 114.648 544.424 114.648 545.909V557H111.966V546.091C111.966 544.72 111.61 543.652 110.898 542.886C110.186 542.114 109.208 541.727 107.966 541.727C107.11 541.727 106.345 541.913 105.67 542.284C105.004 542.655 104.477 543.197 104.091 543.909C103.705 544.621 103.511 545.485 103.511 546.5ZM126.866 557.364C125.185 557.364 123.734 556.992 122.514 556.25C121.302 555.5 120.366 554.455 119.707 553.114C119.056 551.765 118.73 550.197 118.73 548.409C118.73 546.621 119.056 545.045 119.707 543.682C120.366 542.311 121.283 541.242 122.457 540.477C123.639 539.705 125.018 539.318 126.594 539.318C127.503 539.318 128.401 539.47 129.287 539.773C130.173 540.076 130.98 540.568 131.707 541.25C132.435 541.924 133.014 542.818 133.446 543.932C133.878 545.045 134.094 546.417 134.094 548.045V549.182H120.639V546.864H131.366C131.366 545.879 131.17 545 130.776 544.227C130.389 543.455 129.836 542.845 129.116 542.398C128.404 541.951 127.563 541.727 126.594 541.727C125.526 541.727 124.601 541.992 123.821 542.523C123.048 543.045 122.454 543.727 122.037 544.568C121.62 545.409 121.412 546.311 121.412 547.273V548.818C121.412 550.136 121.639 551.254 122.094 552.17C122.556 553.08 123.196 553.773 124.014 554.25C124.832 554.72 125.783 554.955 126.866 554.955C127.571 554.955 128.207 554.856 128.776 554.659C129.351 554.455 129.848 554.152 130.264 553.75C130.681 553.341 131.003 552.833 131.23 552.227L133.821 552.955C133.548 553.833 133.09 554.606 132.446 555.273C131.802 555.932 131.007 556.447 130.06 556.818C129.113 557.182 128.048 557.364 126.866 557.364ZM145.991 557.318C144.491 557.318 143.154 557.061 141.98 556.545C140.813 556.03 139.885 555.314 139.196 554.398C138.514 553.473 138.143 552.402 138.082 551.182H140.946C141.007 551.932 141.264 552.58 141.719 553.125C142.173 553.663 142.768 554.08 143.503 554.375C144.238 554.67 145.052 554.818 145.946 554.818C146.946 554.818 147.832 554.644 148.605 554.295C149.378 553.947 149.984 553.462 150.423 552.841C150.863 552.22 151.082 551.5 151.082 550.682C151.082 549.826 150.87 549.072 150.446 548.42C150.022 547.761 149.401 547.246 148.582 546.875C147.764 546.504 146.764 546.318 145.582 546.318H143.719V543.818H145.582C146.507 543.818 147.317 543.652 148.014 543.318C148.719 542.985 149.268 542.515 149.662 541.909C150.063 541.303 150.264 540.591 150.264 539.773C150.264 538.985 150.09 538.299 149.741 537.716C149.393 537.133 148.901 536.678 148.264 536.352C147.635 536.027 146.893 535.864 146.037 535.864C145.234 535.864 144.476 536.011 143.764 536.307C143.06 536.595 142.484 537.015 142.037 537.568C141.59 538.114 141.348 538.773 141.31 539.545H138.582C138.628 538.326 138.995 537.258 139.685 536.341C140.374 535.417 141.276 534.697 142.389 534.182C143.51 533.667 144.741 533.409 146.082 533.409C147.522 533.409 148.757 533.701 149.787 534.284C150.817 534.86 151.609 535.621 152.162 536.568C152.715 537.515 152.991 538.538 152.991 539.636C152.991 540.947 152.647 542.064 151.957 542.989C151.276 543.913 150.348 544.553 149.173 544.909V545.091C150.643 545.333 151.791 545.958 152.616 546.966C153.442 547.966 153.855 549.205 153.855 550.682C153.855 551.947 153.51 553.083 152.821 554.091C152.139 555.091 151.207 555.879 150.026 556.455C148.844 557.03 147.499 557.318 145.991 557.318ZM166.503 545.318V546.727C165.238 546.727 164.351 546.992 163.844 547.523C163.344 548.053 163.094 548.939 163.094 550.182V553.818C163.094 554.864 162.991 555.769 162.787 556.534C162.59 557.299 162.264 557.932 161.81 558.432C161.355 558.932 160.749 559.303 159.991 559.545C159.234 559.788 158.298 559.909 157.185 559.909V557.682C158.063 557.682 158.753 557.542 159.253 557.261C159.76 556.989 160.116 556.568 160.321 556C160.533 555.432 160.639 554.705 160.639 553.818V549.273C160.639 548.682 160.715 548.144 160.866 547.659C161.026 547.174 161.313 546.758 161.73 546.409C162.147 546.061 162.738 545.792 163.503 545.602C164.276 545.413 165.276 545.318 166.503 545.318ZM157.185 530.818C158.298 530.818 159.234 530.939 159.991 531.182C160.749 531.424 161.355 531.795 161.81 532.295C162.264 532.795 162.59 533.428 162.787 534.193C162.991 534.958 163.094 535.864 163.094 536.909V540.545C163.094 541.788 163.344 542.674 163.844 543.205C164.351 543.735 165.238 544 166.503 544V545.409C165.276 545.409 164.276 545.314 163.503 545.125C162.738 544.936 162.147 544.667 161.73 544.318C161.313 543.97 161.026 543.553 160.866 543.068C160.715 542.583 160.639 542.045 160.639 541.455V536.909C160.639 536.023 160.533 535.295 160.321 534.727C160.116 534.152 159.76 533.727 159.253 533.455C158.753 533.182 158.063 533.045 157.185 533.045V530.818ZM166.503 544V546.727H163.821V544H166.503ZM178.097 545.318V546.727C176.831 546.727 175.945 546.992 175.438 547.523C174.938 548.053 174.688 548.939 174.688 550.182V553.818C174.688 554.864 174.585 555.769 174.381 556.534C174.184 557.299 173.858 557.932 173.403 558.432C172.949 558.932 172.343 559.303 171.585 559.545C170.828 559.788 169.892 559.909 168.778 559.909V557.682C169.657 557.682 170.347 557.542 170.847 557.261C171.354 556.989 171.71 556.568 171.915 556C172.127 555.432 172.233 554.705 172.233 553.818V549.273C172.233 548.682 172.309 548.144 172.46 547.659C172.619 547.174 172.907 546.758 173.324 546.409C173.741 546.061 174.331 545.792 175.097 545.602C175.869 545.413 176.869 545.318 178.097 545.318ZM168.778 530.818C169.892 530.818 170.828 530.939 171.585 531.182C172.343 531.424 172.949 531.795 173.403 532.295C173.858 532.795 174.184 533.428 174.381 534.193C174.585 534.958 174.688 535.864 174.688 536.909V540.545C174.688 541.788 174.938 542.674 175.438 543.205C175.945 543.735 176.831 544 178.097 544V545.409C176.869 545.409 175.869 545.314 175.097 545.125C174.331 544.936 173.741 544.667 173.324 544.318C172.907 543.97 172.619 543.553 172.46 543.068C172.309 542.583 172.233 542.045 172.233 541.455V536.909C172.233 536.023 172.127 535.295 171.915 534.727C171.71 534.152 171.354 533.727 170.847 533.455C170.347 533.182 169.657 533.045 168.778 533.045V530.818ZM178.097 544V546.727H175.415V544H178.097Z" fill="white"/>
</g>
<defs>
<linearGradient id="paint0_linear_3_2" x1="154" y1="130" x2="728.5" y2="440.5" gradientUnits="userSpaceOnUse">
<stop stop-color="#0D181B"/>
<stop offset="1" stop-color="#111F20"/>
</linearGradient>
<radialGradient id="paint1_radial_3_2" cx="0" cy="0" r="1" gradientUnits="userSpaceOnUse" gradientTransform="translate(1128 1024) rotate(90) scale(651 645)">
<stop stop-color="#72A9CC"/>
<stop offset="1" stop-color="#23825E"/>
</radialGradient>
<clipPath id="clip0_3_2">
<rect width="1200" height="630" fill="white"/>
</clipPath>
</defs>
</svg>
